<svg width="16" height="14" viewBox="0 0 16 14" fill="none" xmlns="http://www.w3.org/2000/svg">
<path d="M1 4.95833C1 2.77588 2.68274 1 4.76768 1C5.74991 1 6.6381 1.39251 7.30771 2.0349C7.69461 2.40607 8.30539 2.40607 8.69229 2.0349C9.3619 1.39251 10.2501 1 11.2323 1C13.3173 1 15 2.77588 15 4.95833C15 5.71271 14.6938 6.53261 14.1886 7.36105C13.6846 8.18769 12.9897 9.01112 12.2295 9.76968C10.7301 11.2658 8.99162 12.4949 8 12.9887C7.00837 12.4949 5.2699 11.2658 3.77053 9.76968C3.01032 9.01112 2.3154 8.18769 1.81136 7.36105C1.30623 6.53261 1 5.71271 1 4.95833Z" stroke="#6653D9" stroke-width="2" stroke-linejoin="round"/>
</svg>
