<svg width="16" height="14" viewBox="0 0 16 14" fill="none" xmlns="http://www.w3.org/2000/svg">
<path fill-rule="evenodd" clip-rule="evenodd" d="M4.76768 0C2.07929 0 0 2.27618 0 4.95833C0 5.97064 0.404744 6.975 0.95756 7.88164C1.51621 8.79785 2.26867 9.68376 3.0642 10.4776C4.64405 12.054 6.50014 13.371 7.60595 13.9093C7.85429 14.0302 8.14571 14.0302 8.39405 13.9093C9.49986 13.371 11.3559 12.054 12.9358 10.4776C13.7313 9.68376 14.4838 8.79785 15.0424 7.88164C15.5953 6.975 16 5.97064 16 4.95833C16 2.27618 13.9207 0 11.2323 0C9.97451 0 8.84275 0.504784 8 1.31328C7.15725 0.504784 6.02549 0 4.76768 0Z" fill="#6653D9"/>
</svg>
